<svg version="1.1" id="Слой_1" xmlns="http://www.w3.org/2000/svg" xmlns:xlink="http://www.w3.org/1999/xlink" x="0px" y="0px" width="48px" height="48px" viewBox="0 0 48 48" enable-background="new 0 0 48 48" xml:space="preserve">
<path fill="#3949AB" d="M28.002,26.043l-7.242-7.174c-0.8-0.793-2.097-0.793-2.897,0l-5.793,5.739l-0.002,2.871l7.243,7.177
	l2.897-0.002l5.794-5.74C28.801,28.121,28.801,26.836,28.002,26.043z"></path>
<g>
	<path fill="#5C6BC0" d="M42,6.908L40.073,5c-0.765,0.173-1.546,0.569-1.934,0.953c-0.724,0.718-0.323,1.757-0.724,2.152
		c-0.4,0.396-1.049,0.396-1.449,0l-3.621,3.587c-0.8,0.793-0.8,2.079,0,2.871c0.801,0.793,2.097,0.792,2.897,0.001l3.62-3.589
		c-0.399-0.396-0.4-1.039,0-1.435c0.401-0.396,1.449,0,2.174-0.718C41.424,8.44,41.826,7.666,42,6.908z"></path>
	<polygon fill="#5C6BC0" points="12.067,27.479 19.311,34.656 14.242,39.676 7,32.502 	"></polygon>
</g>
<polygon fill="#9FA8DA" points="19.311,27.479 16,24.2 13.517,21.738 16.414,18.869 18.897,21.33 22.207,24.608 "></polygon>
<polygon fill="#D7CCC8" points="27.277,25.325 21.484,19.586 32.346,8.823 38.14,14.563 "></polygon>
<g>
	<polygon fill="#455A64" points="35.242,17.435 29.449,11.692 30.898,10.258 36.691,15.998 	"></polygon>
	<polygon fill="#455A64" points="32.347,20.304 26.553,14.563 28.001,13.129 33.795,18.869 	"></polygon>
</g>
<g>
	<polygon fill="#BCAAA4" points="9.172,34.653 8.448,36.807 9.896,38.241 12.069,37.523 	"></polygon>
	<polygon fill="#BCAAA4" points="29.449,23.174 23.656,17.435 25.104,15.998 30.898,21.738 	"></polygon>
</g>
<g>
	<polygon fill="#7986CB" points="25.104,33.22 19.311,27.479 22.207,24.608 25.517,27.888 28,30.351 	"></polygon>
	<path fill="#7986CB" d="M12.814,38.261l-1.087,1.063c-0.909,0.9-2.389,0.901-3.3-0.001l-0.71-0.703L6.31,40.041l0.71,0.704
		c0.844,0.836,1.953,1.253,3.06,1.253c1.106,0,2.211-0.416,3.05-1.249l1.104-1.08L12.814,38.261z"></path>
</g>
</svg>