<svg version="1.1" id="Слой_1" xmlns="http://www.w3.org/2000/svg" xmlns:xlink="http://www.w3.org/1999/xlink" x="0px" y="0px" width="48px" height="48px" viewBox="0 0 48 48" enable-background="new 0 0 48 48" xml:space="preserve">
<g>
	<path fill="#795548" d="M31.098,37.204c0,0-0.002-0.013-0.004-0.02c-0.139,0.073-1.719,1.024-2.75,0.128
		c-1.685-1.464,0.25-5.922,2.189-8.873c0.2-0.304,3.237-3.814,7.267-2.445c-0.375-2.02-1.017-3.906-1.882-5.6
		c-0.119-0.043-0.239-0.09-0.369-0.143c-0.158-0.066-0.324-0.139-0.505-0.226c-0.081-0.039-0.136-0.054-0.209-0.085
		C31.818,18.104,28.074,17,24,17c-4.074,0-7.818,1.104-10.835,2.941c-0.073,0.031-0.128,0.046-0.209,0.085
		c-0.199,0.096-0.382,0.177-0.556,0.247c-0.163,0.067-0.312,0.121-0.456,0.172c0,0,0,0-0.001,0
		c-0.864,1.702-1.505,3.598-1.874,5.626c0.001-0.001,0.002-0.001,0.003-0.001c4.219-1.529,7.286,2.205,7.394,2.369
		c1.94,2.951,3.757,7.284,2.19,8.873c-0.823,0.834-2.387,0.051-2.447,0.023c-0.001,0.004-0.001,0.008-0.002,0.011
		c-1.396-0.712-2.679-1.615-3.78-2.71l-2.82,2.837c0.029,0.028,5.116,5.525,13.411,5.525s12.99-5.136,13.431-5.58
		c0.009-0.009,0.016-0.018,0.023-0.026l-2.836-2.819C33.599,35.617,32.404,36.502,31.098,37.204z"></path>
	<path fill="#795548" d="M24,9c4.136,0,7.886,1.682,10.602,4.398l2.827-2.827C33.988,7.131,29.238,5,24,5s-9.988,2.131-13.429,5.571
		l2.827,2.827C16.114,10.682,19.864,9,24,9z"></path>
</g>
<circle fill="#3E2723" cx="24" cy="23" r="5.079"></circle>
<g>
	<path fill="#9FA8DA" d="M43,24c0-5.276-2.152-10.047-5.625-13.49l-2.816,2.841c-0.002-0.003-0.004-0.005-0.007-0.007
		c1.751,1.734,3.071,3.897,3.803,6.316c0,0.454-0.214,1.553-2.437,0.734c0.865,1.693,1.507,3.58,1.882,5.6
		c0.081,0.042,0.161,0.084,0.228,0.135c0.403,0.299,0.484,1.25,0.254,2.449c-0.732,2.285-1.993,4.334-3.645,5.995l2.836,2.818
		C40.887,33.957,43,29.227,43,24z"></path>
	<path fill="#9FA8DA" d="M10.196,29.873c-0.618-1.795-0.736-3.364-0.224-3.744c0.03-0.021,0.068-0.039,0.1-0.059
		c-0.001,0-0.002,0-0.003,0.001c0.369-2.028,1.01-3.924,1.874-5.626c-2.107,0.727-2.301-0.355-2.298-0.794
		c0.718-2.37,2.004-4.495,3.705-6.21l0.048-0.043l-2.827-2.827C7.167,14.005,5,18.782,5,24c0,5.268,2.152,10.025,5.614,13.467
		l2.813-2.83C12.064,33.282,10.96,31.668,10.196,29.873z"></path>
	<circle fill="#9FA8DA" cx="24" cy="23" r="3"></circle>
</g>
</svg>