<svg version="1.0" id="Layer_1" xmlns="http://www.w3.org/2000/svg" xmlns:xlink="http://www.w3.org/1999/xlink" x="0px" y="0px" viewBox="0 0 48 48" enable-background="new 0 0 48 48" xml:space="preserve">
<path fill="#90CAF9" d="M42,42H6V10c0-2.2,1.8-4,4-4h28c2.2,0,4,1.8,4,4V42z"></path>
<rect x="6" y="42" fill="#64B5F6" width="36" height="2"></rect>
<g>
	<rect x="31" y="27" fill="#1565C0" width="6" height="5"></rect>
	<rect x="21" y="27" fill="#1565C0" width="6" height="5"></rect>
	<rect x="11" y="27" fill="#1565C0" width="6" height="5"></rect>
	<rect x="31" y="35" fill="#1565C0" width="6" height="5"></rect>
	<rect x="11" y="35" fill="#1565C0" width="6" height="5"></rect>
	<rect x="31" y="19" fill="#1565C0" width="6" height="5"></rect>
	<rect x="21" y="19" fill="#1565C0" width="6" height="5"></rect>
	<rect x="11" y="19" fill="#1565C0" width="6" height="5"></rect>
	<rect x="31" y="11" fill="#1565C0" width="6" height="5"></rect>
	<rect x="21" y="11" fill="#1565C0" width="6" height="5"></rect>
	<rect x="11" y="11" fill="#1565C0" width="6" height="5"></rect>
	<rect x="21" y="35" fill="#1565C0" width="6" height="9"></rect>
</g>
</svg>