<svg version="1.1" id="Слой_1" xmlns="http://www.w3.org/2000/svg" xmlns:xlink="http://www.w3.org/1999/xlink" x="0px" y="0px" width="48px" height="48px" viewBox="0 0 48 48" enable-background="new 0 0 48 48" xml:space="preserve">
<path fill="#E8EAF6" d="M40.438,42h-34V13h34V42z"></path>
<rect x="6.438" y="37" fill="#C5CAE9" width="34" height="5"></rect>
<path fill="#D84315" d="M27.438,42V31.918c0-2.164-1.818-3.918-4.014-3.918c-2.194,0-3.975,1.754-3.975,3.918V42H27.438z"></path>
<g>
	<rect x="31.438" y="27" fill="#01579B" width="5" height="8"></rect>
	<rect x="10.438" y="27" fill="#01579B" width="5" height="8"></rect>
</g>
<path fill="#D32F2F" d="M42.438,25H29.646l-6.208-9.518L17.229,25H4.438V6h38V25z"></path>
<path fill="#FF8A65" d="M24.938,34c-0.275,0-0.5,0.225-0.5,0.5v2c0,0.275,0.225,0.5,0.5,0.5s0.5-0.225,0.5-0.5v-2
	C25.438,34.225,25.213,34,24.938,34"></path>
<polygon fill="#B71C1C" points="13.808,25 17.229,25 23.438,15.482 29.646,25 33.438,25 23.623,10 "></polygon>
</svg>