<svg version="1.1" id="Слой_1" xmlns="http://www.w3.org/2000/svg" xmlns:xlink="http://www.w3.org/1999/xlink" x="0px" y="0px" width="48px" height="48px" viewBox="0 0 48 48" enable-background="new 0 0 48 48" xml:space="preserve">
<path fill="#616161" d="M4,26h40v-7c0-2.209-1.791-4-4-4H8c-2.209,0-4,1.791-4,4V26z"></path>
<g>
	<rect x="9" y="12" fill="#424242" width="30" height="3"></rect>
	<path fill="#424242" d="M8,37h32c2.209,0,4-1.791,4-4v-8H4v8C4,35.209,5.791,37,8,37"></path>
</g>
<path fill="#00E676" d="M39,19c0,0.552,0.448,1,1,1s1-0.448,1-1s-0.448-1-1-1S39,18.448,39,19"></path>
<path fill="#242424" d="M37.5,32h-27C9.672,32,9,31.328,9,30.5S9.672,29,10.5,29h27c0.828,0,1.5,0.672,1.5,1.5S38.328,32,37.5,32"></path>
<g>
	<rect x="11" y="5" fill="#90CAF9" width="26" height="10"></rect>
	<rect x="11" y="32" fill="#90CAF9" width="26" height="11"></rect>
</g>
<rect x="11" y="30" fill="#42A5F5" width="26" height="2"></rect>
<g>
	<rect x="16" y="34" fill="#1976D2" width="17" height="2"></rect>
	<rect x="16" y="38" fill="#1976D2" width="13" height="2"></rect>
</g>
</svg>