<svg version="1.1" id="Layer_1" xmlns="http://www.w3.org/2000/svg" xmlns:xlink="http://www.w3.org/1999/xlink" x="0px" y="0px" viewBox="0 0 48 48" style="enable-background:new 0 0 48 48;" xml:space="preserve">
<g>
	<polygon style="fill:#90CAF9;" points="40,45 8,45 8,3 30,3 40,13 	"></polygon>
</g>
<polygon style="fill:#E1F5FE;" points="38.5,14 29,14 29,4.5 "></polygon>
<g>
	<rect x="14" y="20" style="fill:#1976D2;" width="20" height="2"></rect>
	<rect x="14" y="16" style="fill:#1976D2;" width="20" height="2"></rect>
	<rect x="14" y="10" style="fill:#1976D2;" width="13" height="4"></rect>
	<rect x="14" y="24" style="fill:#1976D2;" width="20" height="2"></rect>
</g>
<path id="XMLID_7217_" style="fill:none;stroke:#1565C0;stroke-width:1.2;stroke-miterlimit:10;" d="M30.929,35.08
	c-1.816,0-2.147,2.177-3.091,2.177c-0.826,0,0.048-2.177-0.857-2.177c-0.848,0-1.686,2.903-2.953,2.903
	c-0.818,0-1.082-1.037-1.082-2.415s0.53-2.666,1.452-2.666c1.947,0-1.258,5.806-4.633,5.806c-1.634,0-2.609-2.007-2.609-3.474
	c0-3.354,1.962-5.235,3.137-5.235c1.128,0,1.202,1.227,1.202,2.009c0,3.725-4.355,8.152-4.355,8.152"></path>
</svg>