<?xml version="1.0" encoding="utf-8"?><svg width="150" height="150" viewBox="0 0 150 150" xmlns="http://www.w3.org/2000/svg" xmlns:xlink="http://www.w3.org/1999/xlink"><view id="archive" viewBox="0 0 50 50"/><svg viewBox="-1 -1 50 50" width="50" height="50"><path fill="#FFA000" d="M40 12H22l-4-4H8c-2.2 0-4 1.8-4 4v8h40v-4c0-2.2-1.8-4-4-4z"/><path fill="#FFCA28" d="M40 12H8c-2.2 0-4 1.8-4 4v20c0 2.2 1.8 4 4 4h32c2.2 0 4-1.8 4-4V16c0-2.2-1.8-4-4-4z"/><g fill="#BF360C"><path d="M22 18h4v2h-4zM22 12h4v2h-4zM22 15h4v2h-4zM22 21h4v2h-4zM26 24h-4c0 3-2 6-2 8 0 2.2 1.8 4 4 4s4-1.8 4-4c0-2-2-5-2-8zm-2 10c-1.1 0-2-.9-2-2s.9-2 2-2 2 .9 2 2-.9 2-2 2z"/></g></svg><view id="clerc" viewBox="50 0 50 50"/><svg width="50" height="50" viewBox="-1 -1 50 50" x="50"><path fill="#FF9800" d="M24 37l-5-6v-6h10v6z"/><g fill="#FFA726"><path d="M35 19a2 2 0 1 1-4 0 2 2 0 0 1 4 0M17 19a2 2 0 1 1-4 0 2 2 0 0 1 4 0"/></g><path fill="#FFB74D" d="M33 13c0-7.635-18-4.97-18 0v7a9 9 0 0 0 9 9 9 9 0 0 0 9-9v-7z"/><path fill="#424242" d="M24 4c-6.075 0-10 4.925-10 11v2.284L16 19v-5l12-4 4 4v5l2-1.74V15c0-4.025-1.038-8.015-6-9l-1-2h-3z"/><g fill="#784719"><path d="M27 19a1 1 0 1 0 2 0 1 1 0 0 0-2 0M19 19a1 1 0 1 0 2 0 1 1 0 0 0-2 0"/></g><path fill="#FFF" d="M24 43l-5-12 5 1 5-1z"/><path fill="#D32F2F" d="M23 35l-.667 4.464 1.667 4 1.667-4L25 35l1-1-2-2-2 2z"/><path fill="#3F51B5" d="M29 31l-5 12-5-12S8 32.986 8 44h32c0-10.975-11-13-11-13"/></svg><view id="document" viewBox="0 50 50 50"/><svg version="1" viewBox="-1 -1 50 50" width="50" height="50" y="50"><path fill="#90CAF9" d="M40 45H8V3h22l10 10z"/><path fill="#E1F5FE" d="M38.5 14H29V4.5z"/><g fill="#1976D2"><path d="M16 21h17v2H16zM16 25h13v2H16zM16 29h17v2H16zM16 33h13v2H16z"/></g></svg><view id="excel" viewBox="50 50 50 50"/><svg width="50" height="50" viewBox="-1 -1 50 50" x="50" y="50"><path fill="#4CAF50" d="M41 10H25v28h16a1 1 0 0 0 1-1V11a1 1 0 0 0-1-1z"/><g fill="#FFF"><path d="M32 15h7v3h-7zM32 25h7v3h-7zM32 30h7v3h-7zM32 20h7v3h-7zM25 15h5v3h-5zM25 25h5v3h-5zM25 30h5v3h-5zM25 20h5v3h-5z"/></g><path fill="#2E7D32" d="M27 42L6 38V10l21-4z"/><path fill="#FFF" d="M19.13 31l-2.412-4.56c-.092-.172-.186-.484-.284-.94h-.037c-.046.216-.154.542-.324.98L13.653 31H9.894l4.462-7-4.083-7h3.837l2.002 4.196c.156.33.296.725.42 1.18h.04c.078-.272.224-.68.44-1.22L19.236 17h3.515l-4.2 6.94 4.317 7.058h-3.74V31z"/></svg><view id="manager" viewBox="100 0 50 50"/><svg version="1" viewBox="-1 -1 50 50" width="50" height="50" x="100"><path fill="#FF9800" d="M24 37l-5-6v-6h10v6z"/><g fill="#FFA726"><circle cx="33" cy="19" r="2"/><circle cx="15" cy="19" r="2"/></g><path fill="#FFB74D" d="M33 13c0-7.6-18-5-18 0v7c0 5 4 9 9 9s9-4 9-9v-7z"/><path fill="#FF5722" d="M24 4c-6.1 0-10 4.9-10 11v2.3l2 1.7v-5l12-4 4 4v5l2-1.7V15c0-4-1-8-6-9l-1-2h-3z"/><g fill="#784719"><circle cx="28" cy="19" r="1"/><circle cx="20" cy="19" r="1"/></g><path fill="#CFD8DC" d="M29 31l-5 1-5-1S8 33 8 44h32c0-11-11-13-11-13z"/><path fill="#3F51B5" d="M23 35l-1 9h4l-1-9 1-1-2-2-2 2z"/></svg><view id="pdf" viewBox="100 50 50 50"/><svg width="50" height="50" viewBox="-1 -1 50 50" x="100" y="50"><path fill="#FF5722" d="M40 45H8V3h22l10 10z"/><path fill="#FBE9E7" d="M38.5 14H29V4.5z"/><g fill="#FFEBEE"><path d="M15.81 29.5V33H13.8v-9.953h3.39c.985 0 1.77.306 2.356.916s.878 1.403.878 2.38-.29 1.744-.868 2.31-1.38.847-2.407.847h-1.34zm0-1.675h1.38c.384 0 .68-.125.89-.376s.314-.616.314-1.095c0-.497-.107-.892-.32-1.187a1.032 1.032 0 0 0-.862-.447H15.81v3.105zM21.764 33v-9.953h2.632c1.162 0 2.09.37 2.778 1.107.69.738 1.043 1.75 1.057 3.035V28.8c0 1.308-.345 2.335-1.034 3.08-.692.746-1.643 1.118-2.855 1.118h-2.576zm2.01-8.278v6.61h.6c.67 0 1.143-.177 1.416-.53.273-.353.417-.962.43-1.828v-1.73c0-.93-.13-1.577-.39-1.943-.26-.366-.7-.56-1.325-.577h-.732zM34.807 28.94h-3.124V33h-2.01v-9.953h5.51v1.675h-3.5v2.55h3.124v1.667z"/></g></svg><view id="word" viewBox="0 100 50 50"/><svg width="50" height="50" viewBox="-1 -1 50 50" y="100"><path fill="#2196F3" d="M41 10H25v28h16a1 1 0 0 0 1-1V11a1 1 0 0 0-1-1z"/><g fill="#FFF"><path d="M25 15h14v2H25zM25 19h14v2H25zM25 23h14v2H25zM25 27h14v2H25zM25 31h14v2H25z"/></g><path fill="#0D47A1" d="M27 42L6 38V10l21-4z"/><path fill="#FFF" d="M21.167 31.012H18.45l-1.802-8.988a9.328 9.328 0 0 1-.174-1.576h-.032a11.68 11.68 0 0 1-.197 1.576l-1.85 8.988h-2.827l-2.86-14.014h2.675l1.536 9.328c.06.404.11.938.142 1.607h.042c.02-.498.098-1.05.223-1.645l1.97-9.29h2.622l1.784 9.403c.062.35.12.847.17 1.512h.03c.02-.515.074-1.035.16-1.563l1.504-9.353h2.468l-2.87 14.015z"/></svg><view id="worker" viewBox="50 100 50 50"/><svg width="50" height="50" viewBox="-1 -1 50 50" x="50" y="100"><path fill="#00897B" d="M28 32l-5 1-5-1S7 33.986 7 45h32c0-10.975-11-13-11-13"/><path fill="#FF9800" d="M23 38l-5-6v-6h10v6z"/><g fill="#FFA726"><path d="M34 20a2 2 0 1 1-4 0 2 2 0 0 1 4 0M16 20a2 2 0 1 1-4 0 2 2 0 0 1 4 0"/></g><path fill="#FFB74D" d="M32 14c0-7.635-18-4.97-18 0v7a9 9 0 0 0 9 9 9 9 0 0 0 9-9v-7z"/><path fill="#424242" d="M23 5c-6.075 0-10 4.925-10 11v2.284L15 20v-5l12-4 4 4v5l2-1.74V16c0-4.025-1.038-8.015-6-9l-1-2h-3z"/><g fill="#784719"><path d="M26 20a1 1 0 1 0 2 0 1 1 0 0 0-2 0M18 20a1 1 0 1 0 2 0 1 1 0 0 0-2 0"/></g><g fill="#F9A825"><path d="M17 32.252c-.945.278-2.445.822-4 1.792V43h4V32.252zM33 34.058a16.643 16.643 0 0 0-4-1.803V43h4v-8.942z"/><path d="M13 41h20v4H13z"/></g><g fill="#263238"><path d="M17 41h-4v-3h4zM33 41h-4v-3h4z"/></g><g fill="#FF5722"><path d="M33 15v-2a9 9 0 0 0-9-9h-2a9 9 0 0 0-9 9v2h20z"/><path d="M11 14h24v3H11z"/></g><path fill="#D84315" d="M20 3h6v11h-6z"/></svg></svg>