<?xml version="1.0" encoding="utf-8"?><svg version="1.1" id="P!P;P>P9_1" xmlns="http://www.w3.org/2000/svg" xmlns:xlink="http://www.w3.org/1999/xlink" x="0px" y="0px"	 width="48px" height="48px" viewBox="0 0 48 48" enable-background="new 0 0 48 48" xml:space="preserve"><rect x="27.907" y="39.776" transform="matrix(0.9577 0.2877 -0.2877 0.9577 13.0953 -6.5707)" fill="#455A64" width="2" height="3"/><rect x="32.867" y="8.701" transform="matrix(0.9577 0.2878 -0.2878 0.9577 4.2452 -9.4792)" fill="#546E7A" width="3" height="2"/><rect x="30.299" y="6.038" transform="matrix(0.9577 0.2877 -0.2877 0.9577 4.9296 -8.4734)" fill="#90A4AE" width="2" height="13"/><path fill="#33691E" d="M39.862,5.128c-1.588-0.477-3.26,0.423-3.736,2.01l-3.165,10.535l5.747,1.727l3.164-10.535	C42.349,7.277,41.449,5.604,39.862,5.128z"/><path fill="#8BC34A" d="M30.008,41.085c1.455-1.261,3.582-4.971,3.93-6.129l4.482-14.599l-5.747-1.727l-4.481,14.6	c-0.348,1.157-0.617,5.426-0.099,7.279L30.008,41.085z"/><path fill="none" stroke="#2196F3" stroke-width="2" stroke-linecap="round" stroke-linejoin="round" stroke-miterlimit="10" d="	M17.668,21.881c-0.353-3.775-2.952-7.131-6.716-3.766c-2.252,2.016-3.095,5.826-3.653,8.647c-0.372,1.87-0.817,6.128,1.526,6.962	c2.758,0.979,4.852-2.768,7.447-2.593c0.226,1.148-0.995,3.322-0.327,4.319c1.053,1.581,2.167-0.767,3.479-0.482	c0.939,0.208,0.384,0.932,0.992,1.229c0.629,0.309,1.421,0.038,2.103,0.338c0.797,0.355,1.09,0.867,1.79,1.393"/><rect x="32.547" y="18.493" transform="matrix(0.9577 0.2876 -0.2876 0.9577 7.1087 -9.4)" fill="#FFC107" width="6" height="2"/></svg>