<?xml version="1.0" encoding="utf-8"?><svg version="1.1" id="P!P;P>P9_1" xmlns="http://www.w3.org/2000/svg" xmlns:xlink="http://www.w3.org/1999/xlink" x="0px" y="0px"	 width="48px" height="48px" viewBox="0 0 48 48" enable-background="new 0 0 48 48" xml:space="preserve"><path fill="#F8BBD0" d="M29.599,14h-8.239C14.533,14,9,19.127,9,26l0,0c0,6.872,5.533,13,12.359,13h1.904	c0.337-0.604,0.972-1,1.737-1h1c0.765,0,1.398,0.396,1.736,1h1.862C36.424,39,41.958,33.334,42,26l0,0	C41.959,19.589,36.424,14,29.599,14z"/><g>	<path fill="#FF80AB" d="M23.263,39h-1.904c-2.769,0-5.316-1.02-7.376-2.677c0.015,0.015,0.023,0.033,0.04,0.048		C15.124,37.357,15,42,15,42c0,0.569,0.432,1,1,1h5c2,0,2-2,2-3c0-0.745,0.48-1.488,1.194-1.82C23.8,38.351,23.471,38.629,23.263,39		z"/>	<path fill="#FF80AB" d="M9,26c0-2.359,0.664-4.504,1.796-6.314C9.73,21.206,7.972,21.377,7,22c-1.071,0.686-1,0.864-1,2v4		c0.047,1.135-0.098,1.358,1,2c1.098,0.642,3,1,3.766,2.561c0.013,0.025,0.03,0.033,0.044,0.052C9.669,30.641,9,28.368,9,26z"/>	<path fill="#FF80AB" d="M38,15c1.103,0,2,0.897,2,2c0,0.638-0.306,1.2-0.772,1.567c0.426,0.514,0.808,1.062,1.145,1.636		C41.354,19.474,42,18.315,42,17c0-2.206-1.794-4-4-4c-0.553,0-1,0.448-1,1S37.447,15,38,15z"/>	<path fill="#FF80AB" d="M29.599,39h-1.862c-0.208-0.371-0.537-0.649-0.931-0.819C27.52,38.512,28,39.255,28,40c0,1,0,3,2,3h5.136		C35.37,43,36,42.569,36,42c0,0-0.26-4.865,1.328-5.789c0.147-0.086,0.24-0.187,0.309-0.294C35.472,37.847,32.669,39,29.599,39z"/>	<path fill="#FF80AB" d="M13.498,17.604c0.075,1.306,0.084,2.611,2.402,2.402c2.317-0.209,4.002-1.296,4.002-3.203		c0-1.906-0.8-3.201-2.402-4.002C15.9,12,11.097,12,11.097,12S13.262,13.497,13.498,17.604z"/></g><circle fill="#0D47A1" cx="12" cy="22" r="1"/><rect x="21" y="15" fill="#880E4F" width="10" height="2"/><circle fill="#FFC107" cx="26" cy="10" r="6"/><path fill="#FF9800" d="M20.352,12c0.823,2.328,3.037,4,5.648,4s4.825-1.672,5.648-4H20.352z"/></svg>