<?xml version="1.0" encoding="utf-8"?><svg width="200" height="200" viewBox="0 0 200 200" xmlns="http://www.w3.org/2000/svg" xmlns:xlink="http://www.w3.org/1999/xlink"><svg version="1" viewBox="-1 -1 50 50" width="50" height="50" id="assistant" x="50"><g fill="#FFA726"><circle cx="10" cy="26" r="4"/><circle cx="38" cy="26" r="4"/></g><path fill="#FFB74D" d="M39 19c0-12.7-30-8.3-30 0v10c0 8.3 6.7 15 15 15s15-6.7 15-15V19z"/><path fill="#FF5722" d="M24 3C14.6 3 7 10.6 7 20v3.4L9 25v-3l21-9.8 9 9.8v3l2-1.6V20c0-8-5.7-17-17-17z"/><g fill="#784719"><circle cx="31" cy="26" r="2"/><circle cx="17" cy="26" r="2"/></g><path fill="#757575" d="M43 24c-.6 0-1 .4-1 1v-7c0-8.8-7.2-16-16-16h-7c-.6 0-1 .4-1 1s.4 1 1 1h7c7.7 0 14 6.3 14 14v10c0 .6.4 1 1 1s1-.4 1-1v2c0 3.9-3.1 7-7 7H24c-.6 0-1 .4-1 1s.4 1 1 1h11c5 0 9-4 9-9v-5c0-.6-.4-1-1-1z"/><g fill="#37474F"><path d="M43 22h-1c-1.1 0-2 .9-2 2v4c0 1.1.9 2 2 2h1c1.1 0 2-.9 2-2v-4c0-1.1-.9-2-2-2z"/><circle cx="24" cy="38" r="2"/></g></svg><svg width="50" height="50" viewBox="-1 -1 50 50" id="autograph" x="50" y="100"><path fill="#455A64" d="M28.378 39.552l1.916.575L29.43 43l-1.915-.575z"/><path fill="#546E7A" d="M33.218 8.313l2.873.863-.575 1.916-2.873-.864z"/><path fill="#90A4AE" d="M32.21 6.026l1.915.576-3.74 12.45-1.915-.576z"/><path fill="#33691E" d="M39.862 5.128a2.998 2.998 0 0 0-3.736 2.01L32.96 17.673 38.71 19.4l3.164-10.535a3 3 0 0 0-2.01-3.737z"/><path fill="#8BC34A" d="M30.008 41.085c1.455-1.26 3.582-4.97 3.93-6.13l4.482-14.598-5.747-1.727-4.48 14.6c-.35 1.157-.618 5.426-.1 7.28l1.915.575z"/><path fill="none" stroke="#2196F3" stroke-width="2" stroke-linecap="round" stroke-linejoin="round" stroke-miterlimit="10" d="M17.668 21.88c-.353-3.774-2.952-7.13-6.716-3.765C8.7 20.13 7.857 23.94 7.3 26.762c-.373 1.87-.818 6.128 1.525 6.962 2.758.98 4.852-2.768 7.447-2.593.226 1.15-.995 3.323-.327 4.32 1.053 1.58 2.167-.767 3.48-.482.938.208.383.932.99 1.23.63.308 1.422.037 2.104.337.796.355 1.09.867 1.79 1.393"/><path fill="#FFC107" d="M32.96 17.67l5.747 1.727-.576 1.915-5.745-1.725z"/></svg><svg version="1" viewBox="-1 -1 50 50" width="50" height="50" id="clock" y="50"><circle fill="#00ACC1" cx="24" cy="24" r="20"/><circle fill="#EEE" cx="24" cy="24" r="16"/><path d="M23 11h2v13h-2z"/><path d="M31.28 29.654l-1.626 1.626-6.505-6.505 1.626-1.626z"/><circle cx="24" cy="24" r="2"/><circle fill="#00ACC1" cx="24" cy="24" r="1"/></svg><svg version="1" viewBox="-1 -1 50 50" width="50" height="50" id="collect" x="50" y="50"><g fill="#009688"><path d="M22 35h4v11h-4z"/><path d="M24 29.6l7 8.4H17z"/></g><g fill="#009688"><path d="M22 2h4v11h-4z"/><path d="M24 18.4L17 10h14z"/></g><g fill="#009688"><path d="M2 22h11v4H2z"/><path d="M18.4 24L10 31V17z"/></g><g fill="#009688"><path d="M35 22h11v4H35z"/><path d="M29.6 24l8.4-7v14z"/></g><circle fill="#F44336" cx="24" cy="24" r="3"/></svg><svg width="50" height="50" viewBox="-1 -1 50 50" id="conference" x="100"><g fill="#455A64"><path d="M18 36s-2.214-4-8-4-8 4-8 4v3h16v-3zM46 36s-2.214-4-8-4-8 4-8 4v3h16v-3z"/></g><path fill="#FF9800" d="M28 28s0 4-4 4-4-4-4-4"/><path fill="#607D8B" d="M36 34.94S32.68 27 24 27s-12 7.94-12 7.94V39h24v-4.06z"/><g fill="#FFA726"><path d="M32 19.5a1.5 1.5 0 1 1-3 0 1.5 1.5 0 0 1 3 0M19 19.5a1.5 1.5 0 1 1-3 0 1.5 1.5 0 0 1 3 0"/></g><g fill="#FF9800"><path d="M12 29H8v3s-.123 2 1.96 2S12 32 12 32v-3zM40 29h-4v3s-.123 2 1.96 2S40 32 40 32v-3zM24 32c-4 0-4-4-4-4v-4h8v4s0 4-4 4z"/></g><g fill="#FFB74D"><path d="M10 31c-2.758 0-5-2.243-5-5s2.242-5 5-5 5 2.243 5 5-2.242 5-5 5M38 31c-2.758 0-5-2.243-5-5s2.242-5 5-5 5 2.243 5 5-2.242 5-5 5M31 15.68c0-5.878-14-3.827-14 0v4.39c0 3.826 3.133 6.93 7 6.93 3.866 0 7-3.104 7-6.93v-4.39z"/></g><g fill="#424242"><path d="M9.78 19C7.345 19.22 5 20.93 5 24.574V26l1 1v-3l6.31-2.2L14 24v3l1-1v-1.202c0-2.414-.135-4.206-3-4.798l-.485-1H9.78zM37.78 19c-2.436.22-4.78 1.93-4.78 5.574V26l1 1v-3l6.31-2.2L42 24v3l1-1v-1.202c0-2.414-.135-4.206-3-4.798l-.485-1H37.78zM24 8c-4.86 0-8 4.313-8 8.173V18l2 2v-4l9.2-3 2.8 3v4l2-2v-.808c0-3.22-.83-6.804-4.8-7.593L26.4 8H24z"/></g><g fill="#784719"><path d="M26 19a1 1 0 1 0 2 0 1 1 0 0 0-2 0M20 19a1 1 0 1 0 2 0 1 1 0 0 0-2 0"/></g></svg><svg width="50" height="50" viewBox="-1 -1 50 50" id="cup" x="100" y="50"><path fill="#C62828" d="M33 19h-4.583v3H33c2.206 0 4 1.794 4 4.016 0 .017-.142 1.747-1.425 4.313l-.36.726C33.78 33.978 33.123 35 31.418 35h-3v3h3c3.725 0 5.13-2.857 6.49-5.62l.352-.71C39.877 28.433 40.004 26.2 40 26c0-3.86-3.14-7-7-7z"/><g fill="#BCAAA4"><path d="M24.967 14.908l-.318-.456c-.118-.19-1.15-1.898-1.15-3.528 0-.98.375-1.585.65-2.026.217-.352.35-.563.35-.974 0-.898-.614-2.09-.852-2.474l-.283-.458L25.06 3.94l.288.455c.117.19 1.15 1.898 1.15 3.528 0 .98-.376 1.586-.65 2.028-.218.352-.35.564-.35.973 0 .898.613 2.09.85 2.474l.315.458-1.696 1.053zM19.982 14.908l-.318-.456c-.117-.19-1.15-1.898-1.15-3.528 0-.98.376-1.585.65-2.026.218-.352.35-.563.35-.974 0-.898-.613-2.09-.85-2.474l-.284-.458 1.696-1.053.287.455c.117.19 1.15 1.898 1.15 3.528 0 .98-.376 1.586-.65 2.028-.218.352-.35.564-.35.973 0 .898.613 2.09.85 2.474l.315.458-1.696 1.053zM14.998 14.908l-.318-.456c-.117-.19-1.15-1.898-1.15-3.528 0-.98.376-1.585.65-2.026.218-.352.35-.563.35-.974 0-.898-.613-2.09-.85-2.474l-.284-.458 1.696-1.053.287.455c.116.19 1.15 1.898 1.15 3.528 0 .98-.377 1.586-.65 2.028-.22.352-.35.564-.35.973 0 .898.612 2.09.85 2.474l.314.458-1.696 1.053z"/></g><path fill="#F44336" d="M32 14.5a1.5 1.5 0 0 0-1.5-1.5h-21A1.5 1.5 0 0 0 8 14.5S8 28 11 44h18c3-16 3-29.5 3-29.5z"/></svg><svg version="1" viewBox="-1 -1 50 50" width="50" height="50" id="filter" y="100"><path fill="#F57C00" d="M29 23H19L7 9h34z"/><g fill="#FF9800"><path d="M29 38l-10 6V23h10zM41.5 9h-35C5.7 9 5 8.3 5 7.5S5.7 6 6.5 6h35c.8 0 1.5.7 1.5 1.5S42.3 9 41.5 9z"/></g></svg><svg width="50" height="50" viewBox="-1 -1 50 50" id="money-box"><path fill="#F8BBD0" d="M29.6 14h-8.24C14.533 14 9 19.127 9 26c0 6.872 5.533 13 12.36 13h1.903c.337-.604.972-1 1.737-1h1c.765 0 1.398.396 1.736 1h1.862c6.826 0 12.36-5.666 12.402-13-.04-6.41-5.576-12-12.4-12z"/><g fill="#FF80AB"><path d="M23.263 39H21.36c-2.77 0-5.317-1.02-7.377-2.677.015.015.023.033.04.048 1.1.987.977 5.63.977 5.63 0 .57.432 1 1 1h5c2 0 2-2 2-3 0-.745.48-1.488 1.194-1.82a1.93 1.93 0 0 0-.93.82zM9 26c0-2.36.664-4.504 1.796-6.314C9.73 21.206 7.972 21.376 7 22c-1.07.686-1 .864-1 2v4c.047 1.135-.098 1.358 1 2 1.098.642 3 1 3.766 2.56.013.026.03.034.044.053C9.67 30.64 9 28.368 9 26zM38 15c1.103 0 2 .897 2 2 0 .638-.306 1.2-.772 1.567.426.514.808 1.062 1.145 1.636A3.987 3.987 0 0 0 42 17c0-2.206-1.794-4-4-4a1 1 0 0 0 0 2zM29.6 39h-1.863a1.923 1.923 0 0 0-.93-.82C27.52 38.513 28 39.256 28 40c0 1 0 3 2 3h5.136c.234 0 .864-.43.864-1 0 0-.26-4.865 1.328-5.79a.887.887 0 0 0 .31-.293C35.47 37.847 32.667 39 29.597 39zM13.498 17.604c.075 1.306.084 2.61 2.402 2.402 2.317-.21 4.002-1.296 4.002-3.203 0-1.906-.8-3.2-2.402-4.002-1.6-.8-6.403-.8-6.403-.8s2.165 1.497 2.4 5.604z"/></g><circle fill="#0D47A1" cx="12" cy="22" r="1"/><path fill="#880E4F" d="M21 15h10v2H21z"/><circle fill="#FFC107" cx="26" cy="10" r="6"/><path fill="#FF9800" d="M20.352 12c.823 2.328 3.037 4 5.648 4s4.825-1.672 5.648-4H20.352z"/></svg><svg width="50" height="50" viewBox="-1 -1 50 50" id="office-phone" x="100" y="100"><path fill="#5C6BC0" d="M40 37a2 2 0 0 1-2 2H18a2 2 0 0 1-2-2V12a2 2 0 0 1 2-2h20a2 2 0 0 1 2 2v25z"/><path fill="#CDDC39" d="M23 14h13v5H23z"/><g fill="#BBDEFB"><path d="M23 22h3v3h-3zM28 22h3v3h-3zM33 22h3v3h-3zM23 27h3v3h-3zM28 27h3v3h-3zM33 27h3v3h-3zM23 32h3v3h-3zM28 32h3v3h-3zM33 32h3v3h-3z"/></g><path fill="#283593" d="M13.5 6C8 6 8 8 8 9v30c0 1-.063 3 5.5 3s5.5-2 5.5-3V9c0-1 0-3-5.5-3z"/></svg><svg version="1" viewBox="-1 -1 50 50" width="50" height="50" id="organization" x="150"><path fill="#90CAF9" d="M42 42H6V10c0-2.2 1.8-4 4-4h28c2.2 0 4 1.8 4 4v32z"/><path fill="#64B5F6" d="M6 42h36v2H6z"/><g fill="#1565C0"><path d="M31 27h6v5h-6zM21 27h6v5h-6zM11 27h6v5h-6zM31 35h6v5h-6zM11 35h6v5h-6zM31 19h6v5h-6zM21 19h6v5h-6zM11 19h6v5h-6zM31 11h6v5h-6zM21 11h6v5h-6zM11 11h6v5h-6zM21 35h6v9h-6z"/></g></svg><svg width="50" height="50" viewBox="-1 -1 50 50" id="registry-editor" x="150" y="50"><g fill="#00BCD4"><path d="M7 16h8v8H7zM7 24h8v8H7zM15 24h8v8h-8zM7 32h8v8H7zM15 32h8v8h-8zM23 32h8v8h-8zM34 7h7v7h-7zM40.643 26.06l-6.472 1.937-1.934-6.472 6.472-1.935zM28.09 12.37l-3.985 5.26-5.26-3.985 3.985-5.26z"/></g><g fill="#00838F"><path d="M16 25H6V15h10v10zm-8-2h6v-6H8v6z"/><path d="M16 33H6V23h10v10zm-8-2h6v-6H8v6z"/><path d="M24 33H14V23h10v10zm-8-2h6v-6h-6v6z"/><path d="M16 41H6V31h10v10zm-8-2h6v-6H8v6z"/><path d="M24 41H14V31h10v10zm-8-2h6v-6h-6v6z"/><path d="M32 41H22V31h10v10zm-8-2h6v-6h-6v6zM42 15h-9V6h9v9zm-7-2h5V8h-5v5zM33.5 29.245l-2.51-8.39 8.39-2.508 2.51 8.387-8.39 2.51zm-.02-7.046l1.363 4.555 4.555-1.362-1.363-4.556L33.48 22.2zM24.3 19.03l-6.855-5.192 5.192-6.854 6.854 5.192-5.19 6.854zm-4.053-5.58l3.666 2.778 2.776-3.666-3.666-2.777-2.777 3.666z"/></g></svg><svg width="50" height="50" viewBox="-1 -1 50 50" id="speed" x="150" y="100"><path fill="#7986CB" d="M24 8C13.507 8 5 16.507 5 27c0 4.553 1.605 8.728 4.275 12l1.5-3h26.452l1.498 3A18.913 18.913 0 0 0 43 27c0-10.493-8.507-19-19-19z"/><path fill="#ECEFF1" d="M40 27c0-8.836-7.164-16-16-16-8.835 0-16 7.164-16 16 0 3.338 1.025 6.436 2.774 9l-1.5 3h29.45l-1.497-3A15.924 15.924 0 0 0 40 27z"/><g fill="#455A64"><path d="M8.03 26a15.76 15.76 0 0 0 0 2h4.02c-.027-.33-.05-.662-.05-1s.023-.67.05-1H8.03zM14.217 33.915a11.893 11.893 0 0 1-1.042-1.706l-3.43 2.084c.312.592.647 1.16 1.03 1.706l3.442-2.085zM16.945 17.308c.538-.392 1.108-.74 1.71-1.04l-2.043-3.463c-.594.31-1.185.667-1.732 1.047l2.065 3.456zM13.13 21.94c.284-.607.61-1.19.986-1.74l-3.447-2.05a17.426 17.426 0 0 0-1.04 1.805l3.5 1.986zM25 15.05v-4.02c-.333-.02-.663-.03-1-.03s-.667-.02-1 0v4.05c.33-.027.663-.05 1-.05s.67.023 1 .05zM33.768 34.015L37.248 36c.365-.556.732-1.174 1.028-1.775l-3.523-1.95a12.082 12.082 0 0 1-.985 1.74zM39.97 28a15.76 15.76 0 0 0 0-2h-4.02c.027.33.05.662.05 1s-.023.67-.05 1h4.02zM32.81 13.643a16.548 16.548 0 0 0-1.766-1.012l-1.985 3.5c.608.284 1.192.61 1.74.986l2.01-3.473z"/></g><path fill="#90A4AE" d="M20 32h8v2h-8z"/><path fill="none" stroke="#FF1744" stroke-width="2" d="M24 27l12-7"/><path fill="#FF1744" d="M23.887 23.905a2.944 2.944 0 1 1 0 5.888 2.944 2.944 0 0 1 0-5.888z"/></svg><svg width="50" height="50" viewBox="-1 -1 50 50" id="thumb-up" y="150"><g fill="#FFCC80"><path d="M20.96 18H36v24H20.96c-3.248 0-5.88-2.686-5.88-5.997V24c0-3.315 2.632-6 5.88-6z"/><path d="M32 21a3 3 0 0 0 3 3h3a3 3 0 0 0 0-6h-3a3 3 0 0 0-3 3zM29 27a3 3 0 0 0 3 3h6a3 3 0 0 0 0-6h-6a3 3 0 0 0-3 3zM28 33a3 3 0 0 0 3 3h6a3 3 0 0 0 0-6h-6a3 3 0 0 0-3 3zM27 39a3 3 0 0 0 3 3h6a3 3 0 0 0 0-6h-6a3 3 0 0 0-3 3zM22.526 13.566a8.453 8.453 0 0 0 1.916-3.63l.724-2.955c.14-.578.65-.98 1.23-.98h.676c1.78 0 2.968 2 2.968 3.294v1.39c0 2.83-.453 5.61-1.813 8.073L25.6 23.52l-8.192-4.266 5.118-5.688z"/></g><g fill="#F2A25A"><path d="M39 24h-4a1 1 0 0 0 0 2l4-2zM38 30h-4a1 1 0 0 0 0 2l4-2zM37 36h-4a1 1 0 0 0 0 2l4-2z"/></g><path fill="#009688" d="M6.04 19h10v22h-10z"/><circle fill="#B2DFDB" cx="11.04" cy="36" r="2"/></svg><svg version="1" viewBox="-1 -1 50 50" width="50" height="50" id="todo-list" x="50" y="150"><g fill="#3F51B5"><path d="M17.8 18.1l-7.4 7.3-4.2-4.1L4 23.5l6.4 6.4 9.6-9.6zM17.8 5.1l-7.4 7.3-4.2-4.1L4 10.5l6.4 6.4L20 7.3zM17.8 31.1l-7.4 7.3-4.2-4.1L4 36.5l6.4 6.4 9.6-9.6z"/></g><g fill="#90CAF9"><path d="M24 22h20v4H24zM24 9h20v4H24zM24 35h20v4H24z"/></g></svg><svg width="50" height="50" viewBox="-1 -1 50 50" id="wallet" x="100" y="150"><path fill="#F57C00" d="M3 12v24a4 4 0 0 0 4 4h33c1 0 1-.996 1-.996V12H3z"/><path fill="#942A09" d="M40 8H7a4 4 0 0 0 0 8h33c1 0 1 1 1 1V9a1 1 0 0 0-1-1z"/><path fill="#4CAF50" d="M7 12v4h33c1 0 1 1.002 1 1.002V38h2V12H7z"/><path fill="#C8E6C9" d="M7 14v2h28.683a7.035 7.035 0 0 1-.6-2H7z"/><path fill="#BF360C" d="M45 23h-9a4 4 0 0 0 0 8h9v-8z"/><circle fill="#FFECB3" cx="36" cy="27" r="2"/></svg></svg>