<?xml version="1.0" encoding="utf-8"?>
<svg version="1.1" xmlns="http://www.w3.org/2000/svg" x="0px" y="0px" width="185px" height="45px" viewBox="0 0 185 45">

    <filter id="shadow" x="-50%" y="-50%" width="200%" height="200%">
        <feOffset result="offOut" in="SourceGraphic" dx="0" dy="0" />
        <feGaussianBlur result="blurOut" in="offOut" stdDeviation="8" />
        <feBlend in="SourceGraphic" in2="blurOut" mode="normal" />
     </filter>

    <path fill="#FFFFFF" filter="url(#shadow)" d="M28.159,19.026h-3.334l-0.579-3.045c-0.386-0.244-0.949-0.457-1.69-0.639
    c-0.741-0.183-1.528-0.274-2.36-0.274c-1.218,0-2.16,0.257-2.824,0.769c-0.665,0.513-0.998,1.175-0.998,1.987
    c0,0.751,0.348,1.368,1.043,1.85c0.695,0.482,1.896,0.992,3.601,1.53c2.446,0.681,4.301,1.579,5.564,2.696
    c1.264,1.116,1.896,2.583,1.896,4.399c0,1.898-0.751,3.396-2.253,4.492c-1.502,1.096-3.481,1.644-5.938,1.644
    c-1.756,0-3.342-0.279-4.758-0.837c-1.416-0.559-2.596-1.33-3.54-2.314v-4.628h3.441l0.472,3.151
    c0.446,0.365,1.053,0.667,1.819,0.906c0.766,0.238,1.622,0.357,2.565,0.357c1.218,0,2.144-0.249,2.778-0.746
    s0.952-1.162,0.952-1.994c0-0.853-0.302-1.538-0.906-2.056c-0.604-0.518-1.662-1.005-3.174-1.462
    c-2.629-0.761-4.619-1.664-5.968-2.71c-1.35-1.045-2.025-2.477-2.025-4.293c0-1.797,0.761-3.266,2.284-4.408
    c1.522-1.142,3.436-1.728,5.74-1.758c1.705,0,3.258,0.259,4.659,0.776c1.401,0.518,2.578,1.208,3.532,2.071V19.026z M49.748,11.946
    v5.907h-3.41l-0.183-2.481h-4.081v15.622l2.375,0.457v2.664h-9.196V31.45l2.375-0.457V15.372h-4.065l-0.183,2.481h-3.396v-5.907
    H49.748z M48.226,31.45l1.583-0.229l6.745-19.276h4.553l6.699,19.276l1.583,0.229v2.664h-7.552V31.45l1.538-0.274L62.4,28.131
    h-7.186l-0.975,3.045l1.538,0.274v2.664h-7.552V31.45z M56.265,24.857h5.085l-2.497-7.811h-0.091L56.265,24.857z M80.701,11.946
    c2.609,0,4.644,0.508,6.105,1.522c1.461,1.015,2.192,2.533,2.192,4.553c0,1.025-0.271,1.941-0.814,2.748s-1.333,1.413-2.368,1.819
    c1.33,0.284,2.327,0.894,2.992,1.828c0.665,0.934,0.998,2.015,0.998,3.243c0,2.121-0.701,3.728-2.101,4.818
    c-1.401,1.091-3.385,1.637-5.953,1.637H70.85V31.45l2.36-0.457V15.083l-2.36-0.457v-2.68h2.36H80.701z M77.656,21.233h3.197
    c1.188,0,2.101-0.243,2.741-0.73c0.639-0.487,0.959-1.197,0.959-2.132c0-1.024-0.322-1.781-0.967-2.268s-1.606-0.731-2.885-0.731
    h-3.045V21.233z M77.656,24.31v6.395h4.096c1.177,0,2.076-0.257,2.695-0.77c0.619-0.512,0.929-1.271,0.929-2.275
    c0-1.086-0.264-1.916-0.792-2.489c-0.528-0.574-1.36-0.86-2.497-0.86H77.656z M91.465,31.45l2.36-0.457V15.083l-2.36-0.457v-2.68
    h17.646v6.075H105.7l-0.197-2.649h-7.232v6.105h7.765v3.426h-7.765v6.09l2.375,0.457v2.664h-9.181V31.45z M130.381,23.198
    c0,3.248-0.929,5.933-2.786,8.054s-4.288,3.182-7.293,3.182c-2.994,0-5.412-1.061-7.255-3.182c-1.842-2.121-2.763-4.806-2.763-8.054
    v-0.335c0-3.229,0.918-5.908,2.755-8.039c1.838-2.132,4.253-3.197,7.248-3.197c3.004,0,5.438,1.065,7.3,3.197
    c1.862,2.131,2.794,4.811,2.794,8.039V23.198z M125.95,22.832c0-2.293-0.477-4.156-1.431-5.587
    c-0.954-1.432-2.365-2.147-4.232-2.147c-1.868,0-3.261,0.71-4.18,2.131s-1.378,3.289-1.378,5.603v0.367
    c0,2.334,0.465,4.215,1.394,5.641s2.321,2.139,4.179,2.139c1.878,0,3.289-0.713,4.232-2.139c0.944-1.426,1.416-3.307,1.416-5.641
    V22.832z M142.119,11.946c2.518,0,4.492,0.576,5.923,1.728c1.432,1.152,2.146,2.743,2.146,4.773c0,1.117-0.299,2.086-0.898,2.908
    c-0.599,0.822-1.477,1.487-2.634,1.995c1.31,0.387,2.251,1.028,2.824,1.927s0.86,2.012,0.86,3.342v1.127
    c0,0.486,0.097,0.865,0.289,1.134c0.193,0.27,0.513,0.429,0.96,0.479l0.548,0.076v2.68h-2.299c-1.452,0-2.472-0.391-3.061-1.172
    c-0.589-0.782-0.883-1.792-0.883-3.03v-1.264c0-1.076-0.287-1.921-0.86-2.535s-1.383-0.937-2.429-0.967h-3.639v5.847l2.375,0.457
    v2.664h-9.181V31.45l2.36-0.457V15.083l-2.36-0.457v-2.68h2.36H142.119z M138.968,21.72h3.075c1.238,0,2.167-0.264,2.786-0.791
    c0.619-0.528,0.929-1.289,0.929-2.284s-0.307-1.789-0.921-2.383s-1.52-0.891-2.718-0.891h-3.151V21.72z M172.356,11.946v5.907h-3.41
    l-0.183-2.481h-4.08v15.622l2.375,0.457v2.664h-9.196V31.45l2.375-0.457V15.372h-4.065l-0.183,2.481h-3.395v-5.907H172.356z"/>

</svg>
